<svg width="36" height="36" viewBox="0 0 36 36" fill="none" xmlns="http://www.w3.org/2000/svg">
<path d="M18 18C16.4425 18 14.9199 17.5381 13.6249 16.6728C12.3298 15.8075 11.3205 14.5776 10.7244 13.1386C10.1284 11.6997 9.97246 10.1163 10.2763 8.58867C10.5802 7.06107 11.3302 5.65788 12.4315 4.55654C13.5329 3.4552 14.9361 2.70518 16.4637 2.40132C17.9913 2.09746 19.5747 2.25341 21.0136 2.84945C22.4526 3.44549 23.6825 4.45485 24.5478 5.74989C25.4131 7.04492 25.875 8.56748 25.875 10.125C25.875 12.2136 25.0453 14.2166 23.5685 15.6935C22.0916 17.1703 20.0886 18 18 18ZM18 20.25C22.8811 20.25 32.625 23.265 32.625 29.25V33.75H3.375V29.25C3.375 23.265 13.1189 20.25 18 20.25Z" fill="#1C50B4"/>
</svg>
